<svg width="195" height="280" xmlns="http://www.w3.org/2000/svg">
 <!-- Created with Method Draw - http://github.com/duopixel/Method-Draw/ -->
 <g>
  <title>background</title>
  <rect fill="none" id="canvas_background" height="282" width="197" y="-1" x="-1"/>
  <g display="none" overflow="visible" y="0" x="0" height="100%" width="100%" id="canvasGrid">
   <rect fill="url(#gridpattern)" stroke-width="0" y="0" x="0" height="100%" width="100%"/>
  </g>
 </g>
 <g>
  <title>Layer 1</title>
  <rect id="svg_1" height="260" width="160" y="7.750042" x="17.249995" stroke-width="0" stroke="#000" fill="#ff7f00"/>
  <ellipse ry="42" rx="14" id="svg_2" cy="67.695318" cx="17.500054" stroke-width="0" stroke="#000" fill="#333333"/>
  <ellipse ry="42" rx="14" id="svg_3" cy="67.695321" cx="176.997889" stroke-width="0" stroke="#000" fill="#333333"/>
  <ellipse ry="42" rx="14" id="svg_4" cy="216.443302" cx="17.000051" stroke-width="0" stroke="#000" fill="#333333"/>
  <ellipse ry="42" rx="14" id="svg_5" cy="216.193302" cx="176.747891" stroke-width="0" stroke="#000" fill="#333333"/>
  <rect stroke="#000" id="svg_8" height="52.748922" width="118.747583" y="72.998512" x="38.876195" fill-opacity="null" stroke-opacity="null" stroke-width="0" fill="#00ffff"/>
  <path stroke="#000" transform="rotate(179.91366577148438 128.7018280029297,96.89814758300781) " id="svg_9" d="m99.781264,120.64824l0,-47.500181l57.841127,47.500181l-57.841127,0z" stroke-opacity="null" stroke-width="0" fill="#aaffff"/>
  <rect stroke="#000" id="svg_13" height="141.997103" width="9.499806" y="125.747437" x="75.125456" stroke-opacity="null" stroke-width="0" fill="#ffffff"/>
  <rect stroke="#000" id="svg_14" height="141.997103" width="9.499806" y="125.747437" x="107.124804" stroke-opacity="null" stroke-width="0" fill="#ffffff"/>
  <rect stroke="#000" id="svg_15" height="65.498661" width="9.499806" y="7.749844" x="75.125456" stroke-opacity="null" stroke-width="0" fill="#ffffff"/>
  <rect stroke="#000" id="svg_16" height="65.498661" width="9.499806" y="7.749847" x="107.124804" stroke-opacity="null" stroke-width="0" fill="#ffffff"/>
  <rect id="svg_17" height="10.999776" width="4.249913" y="267.494548" x="29.376388" stroke-opacity="null" stroke-width="0" stroke="#000" fill="#7f7f7f"/>
  <rect id="svg_18" height="10.999776" width="4.249913" y="267.494548" x="37.876215" stroke-opacity="null" stroke-width="0" stroke="#000" fill="#7f7f7f"/>
  <ellipse ry="10" rx="10" id="svg_19" cy="21.249567" cx="62.625711" stroke-opacity="null" stroke-width="0" stroke="#000" fill="#ffff00"/>
  <ellipse ry="10" rx="10" id="svg_23" cy="20.749577" cx="128.874359" stroke-opacity="null" stroke-width="0" stroke="#000" fill="#ffff00"/>
  <rect id="svg_24" height="5.999878" width="20.249587" y="258.494732" x="24.87648" stroke-opacity="null" stroke-width="0" stroke="#000" fill="#ff0000"/>
  <rect id="svg_25" height="5.999878" width="20.249587" y="258.244737" x="149.62394" stroke-opacity="null" stroke-width="0" stroke="#000" fill="#ff0000"/>
 </g>
</svg>